<?xml version="1.0" encoding="UTF-8" standalone="no"?>
<svg
   xmlns:dc="http://purl.org/dc/elements/1.1/"
   xmlns:cc="http://creativecommons.org/ns#"
   xmlns:rdf="http://www.w3.org/1999/02/22-rdf-syntax-ns#"
   xmlns:svg="http://www.w3.org/2000/svg"
   xmlns="http://www.w3.org/2000/svg"
   xmlns:sodipodi="http://sodipodi.sourceforge.net/DTD/sodipodi-0.dtd"
   xmlns:inkscape="http://www.inkscape.org/namespaces/inkscape"
   sodipodi:docname="LOGOmggcode.svg"
   inkscape:version="1.0 (4035a4fb49, 2020-05-01)"
   id="svg1538"
   version="1.1"
   viewBox="0 0 206.367 206.367"
   height="206.367mm"
   width="206.367mm">
  <defs
     id="defs1532" />
  <sodipodi:namedview
     inkscape:window-maximized="0"
     inkscape:window-y="0"
     inkscape:window-x="0"
     inkscape:window-height="728"
     inkscape:window-width="1344"
     showgrid="false"
     inkscape:document-rotation="0"
     inkscape:current-layer="layer1"
     inkscape:document-units="mm"
     inkscape:cy="437.08085"
     inkscape:cx="394.27092"
     inkscape:zoom="0.35"
     inkscape:pageshadow="2"
     inkscape:pageopacity="0.0"
     borderopacity="1.0"
     bordercolor="#666666"
     pagecolor="#ffffff"
     id="base" />
  <metadata
     id="metadata1535">
    <rdf:RDF>
      <cc:Work
         rdf:about="">
        <dc:format>image/svg+xml</dc:format>
        <dc:type
           rdf:resource="http://purl.org/dc/dcmitype/StillImage" />
        <dc:title></dc:title>
      </cc:Work>
    </rdf:RDF>
  </metadata>
  <g
     transform="translate(-1.5158192,-32.522359)"
     id="layer1"
     inkscape:groupmode="layer"
     inkscape:label="Layer 1">
    <g
       style="stroke-width:0.483498"
       transform="matrix(2.0682638,0,0,2.0682532,-422.21834,-299.72413)"
       id="g1513">
      <path
         d="m 254.76328,160.64111 a 49.889161,49.888907 0 0 0 -49.88895,49.88945 49.889161,49.888907 0 0 0 49.88895,49.88895 49.889161,49.888907 0 0 0 49.88894,-49.88895 49.889161,49.888907 0 0 0 -0.47129,-6.84403 h -0.24908 -16.70441 -18.56631 v 13.68806 h 18.9203 a 33.679688,34.580036 0 0 1 -33.17834,28.6365 33.679688,34.580036 0 0 1 -33.6796,-34.57981 33.679688,34.580036 0 0 1 33.6796,-34.58031 33.679688,34.580036 0 0 1 29.06489,17.11007 h 18.35237 a 49.889161,49.888907 0 0 0 -47.05707,-33.31993 z"
         style="fill:#1877f2;fill-opacity:1;fill-rule:evenodd;stroke:#000080;stroke-width:0"
         id="path1203-6-6-3-1" />
      <path
         style="fill:#000080;stroke:#000080;stroke-width:0.248976px;stroke-linecap:butt;stroke-linejoin:miter;stroke-opacity:1"
         d="m 231.90322,230.49672 -0.14139,-30.9452 18.52315,19.37438 18.38176,-19.23983 0.1414,30.94519 h -3.39356 v -22.738 l -14.98819,15.33806 -14.98821,-15.33806 -0.4242,22.60346 z"
         id="path453-8-5-3-3-3-4" />
      <path
         style="fill:#8383db;fill-opacity:1;stroke:#8383db;stroke-width:0.245458px;stroke-linecap:butt;stroke-linejoin:miter;stroke-opacity:1"
         d="m 231.71079,194.45682 c 0.0906,0 0.1482,-3.56618 -0.0644,0.60032 -0.0481,0.94353 0.10375,-3.5642 0.10375,-3.5642 l 1.55764,0.0601 16.44309,17.49848 0.28108,0.13158 17.00526,-17.63006 h 1.40539 v 2.87799 l -18.12957,19.75163 -17.67688,-18.256 z"
         id="path459-3-9-7-0-0-62"
         sodipodi:nodetypes="cscccccccccc" />
      <path
         style="fill:#8383db;fill-opacity:1;stroke:#8383db;stroke-width:0.236196px;stroke-linecap:butt;stroke-linejoin:miter;stroke-opacity:1"
         d="m 238.96138,230.47282 0.13731,-18.21041 c 0.95487,1.14819 2.01886,2.01662 3.08246,3.46169 l 0.055,14.85411 z"
         id="path463-2-0-3-7-7-70"
         sodipodi:nodetypes="ccccc" />
      <path
         style="fill:#8383db;fill-opacity:1;stroke:#8383db;stroke-width:0.245458px;stroke-linecap:butt;stroke-linejoin:miter;stroke-opacity:1"
         d="m 258.74537,215.23512 0.50879,15.59125 2.99176,-0.0286 -0.40869,-18.72033 z"
         id="path465-0-3-7-7-6-9"
         sodipodi:nodetypes="ccccc" />
      <path
         style="fill:#3d3dcc;fill-opacity:1;stroke:#3d3dcc;stroke-width:0.246825px;stroke-linecap:butt;stroke-linejoin:miter;stroke-opacity:1"
         d="m 261.83723,212.0775 3.14917,-3.34998 0.42818,21.90374 c 0.28162,-0.0148 0.0277,0.23864 -0.8998,0.20271 -1.67164,-0.0647 -2.26886,-0.0361 -2.26886,-0.0361 z"
         id="path467-0-1-6-3-0-1"
         sodipodi:nodetypes="cccscc" />
      <path
         style="fill:#3d3dcc;fill-opacity:1;stroke:#3d3dcc;stroke-width:0.254595px;stroke-linecap:butt;stroke-linejoin:miter;stroke-opacity:1"
         d="m 231.64481,199.0871 c -0.0196,-1.07882 0.0172,-3.51858 0.066,-4.63028 4.10686,3.68362 12.84321,14.09111 17.98043,19.7275 l 18.75136,-19.75337 0.22416,5.25512 -18.41156,19.43659 z"
         id="path469-8-4-8-9-0-5"
         sodipodi:nodetypes="ccccccc" />
      <path
         id="rect2237-6-7-2-57"
         style="fill:#3d3dcc;fill-opacity:1;fill-rule:evenodd;stroke:#3d3dcc;stroke-width:0.28303;stroke-miterlimit:4;stroke-dasharray:none;stroke-opacity:1"
         inkscape:transform-center-x="4.2248639"
         inkscape:transform-center-y="23.292987"
         d="m 235.43818,207.89326 -0.0994,22.57956 h 3.62264 l 0.13731,-18.21041 c 0,0 -2.33861,-2.61297 -3.66051,-4.36915 z"
         sodipodi:nodetypes="ccccc" />
    </g>
  </g>
</svg>
